<svg xmlns="http://www.w3.org/2000/svg" xmlns:xlink="http://www.w3.org/1999/xlink" width="289.004" height="304.122" viewBox="0 0 289.004 304.122"><defs><clipPath id="a"><rect width="289.004" height="304.122" fill="none"/></clipPath><clipPath id="c"><rect width="14.215" height="31.425" transform="translate(21.468 249.81)" fill="none"/></clipPath></defs><g clip-path="url(#a)"><g clip-path="url(#a)"><path d="M100.769,41.659c28.368-1.667,54.306,9.066,75.3,27.7,15.831,14.047,28.534,31.2,44.348,45.266,15.834,14.08,36.666,21.762,51.2,37.3,20.342,21.76,21.876,55.7,9.6,81.815-9.225,19.617-25.526,35.409-44.326,46.2-49.623,28.485-122.891,32.369-172.352,1.674C30.638,260.581,8.639,222.98,2.607,183.549c-4.08-26.675-4.46-55.861,6.923-80.9C25.861,66.724,62.722,43.9,100.769,41.659" fill="#97d5c9"/><path d="M62.5,246.22a1.257,1.257,0,0,1-1.257-1.257V229.335a10.885,10.885,0,1,0-21.77,0v15.628a1.257,1.257,0,1,1-2.514,0V229.335a13.4,13.4,0,1,1,26.8,0v15.628A1.257,1.257,0,0,1,62.5,246.22" fill="#1d265f"/><path d="M83.08,304.122H19.749l5.777-66.112H77.3Z" fill="#ff8703"/><path d="M78.23,304.122H14.9l5.777-66.112H72.453Z" fill="#ffb549"/><g opacity="0.5" style="mix-blend-mode:soft-light;isolation:isolate"><g clip-path="url(#c)"><path d="M35.6,266c-.591,8.674-4.215,15.491-8.1,15.227s-6.547-7.51-5.957-16.184,4.215-15.49,8.1-15.226S36.193,257.326,35.6,266" fill="#fff"/></g></g><path d="M58.707,246.22a1.257,1.257,0,0,1-1.257-1.257V229.335a10.885,10.885,0,1,0-21.77,0v15.628a1.257,1.257,0,1,1-2.514,0V229.335a13.4,13.4,0,1,1,26.8,0v15.628a1.257,1.257,0,0,1-1.257,1.257" fill="#6165d1"/><path d="M155.729,143.927l-1.782,141.9a5.767,5.767,0,0,1-11.524.262L134.2,144.416a10.776,10.776,0,1,1,21.515-1.249c.014.246.019.518.017.76" fill="#ffb9a7"/><path d="M129.984,145.294,110.268,286.6a6.022,6.022,0,0,1-11.968-1.29l10.864-142.264a10.475,10.475,0,1,1,20.89,1.6c-.016.208-.042.445-.07.65" fill="#ffb9a7"/><path d="M156.57,128.271l.147,147.021c-5.945,2.11-12.3,1.909-18.969,0l-7.362-149.463Z" fill="#002644"/><path d="M105.367,127.672l-9.2,147.62a41.228,41.228,0,0,0,18.666,0l19.45-151.747Z" fill="#002644"/><path d="M178.155,91.379l15.806-39.7a4.4,4.4,0,0,1,8.343,2.784L191.107,95.7a6.838,6.838,0,1,1-12.952-4.321" fill="#ffb9a7"/><path d="M184.031,101.007a6.8,6.8,0,0,1-4.765-1.939L145.394,66.046a6.827,6.827,0,1,1,9.531-9.777L188.8,89.292a6.827,6.827,0,0,1-4.766,11.715" fill="#ffb9a7"/><path d="M149.05,50.444l.171.081a36.639,36.639,0,0,1,10.573,7.582l21.148,21.8L187.756,64.3c8.081,2.06,11.647,4.833,11.647,4.833l-7.385,28.485a7.923,7.923,0,0,1-13.007,3.868L150.12,75.151Z" fill="#f05d56"/><path d="M193.654,52.158s-4.113-11.924-3.384-13,5.166,6.231,5.166,6.231S209.9,31.829,210.822,32.55s-5.151,6.956-5.151,6.956,7.705-6.006,8.49-5.091c.713.829-6.906,7.547-6.906,7.547s8.72-5.378,8.849-4.3-7.394,6.582-7.394,6.582,7.521-3.411,7.548-2.672-6.9,5.643-6.9,5.643c-2.858,2.853-5.91,6.517-7.438,7.678-6.079,4.612-8.269-2.736-8.269-2.736" fill="#ffb9a7"/><path d="M177.308,88.933a.155.155,0,0,1-.142-.218l3.36-7.533a.155.155,0,1,1,.284.126l-3.36,7.533a.156.156,0,0,1-.142.092" fill="#d72d26"/><path d="M153.638,75.654l3.655,57.864c-13.612,2.168-32.687,1.856-52.566-.167l2.714-63.561,5.867-20.96,20.6-3.132,15.141,4.746Z" fill="#f05d56"/><path d="M153.849,81.5h-.008a.157.157,0,0,1-.165-.146c-.01-.167-1.037-16.84-2.484-27.157a.156.156,0,0,1,.133-.175.15.15,0,0,1,.175.132c1.448,10.329,2.476,27.014,2.486,27.182a.155.155,0,0,1-.137.163" fill="#d72d26"/><path d="M152.93,68.568a.155.155,0,0,1-.133-.258c2.224-2.471,2.387-6.541,2.388-6.583a.151.151,0,0,1,.161-.149.154.154,0,0,1,.149.16c0,.171-.166,4.223-2.468,6.78a.153.153,0,0,1-.1.05" fill="#d72d26"/><path d="M126.179,32.823l-1.006,14.4s8.215,4.092,13.655.9l-.19-10.925Z" fill="#ffb9a7"/><path d="M138.762,44.313C131.541,43.7,129,39.759,129,39.759l9.692.683Z" fill="#c26251"/><path d="M123.577,47.269,133.91,45.7l6.659,2.088c-1.314,6.844-14.668,7.305-16.992-.517" fill="#ffb9a7"/><path d="M149.8,6.824A4.953,4.953,0,0,0,150.45,4.7,4.358,4.358,0,0,0,148.059.925,9.271,9.271,0,0,0,143.5,0a22.12,22.12,0,0,0-11.384,3.23,4.074,4.074,0,0,0-3.614-.735,9.26,9.26,0,0,0-4.9,2.65,9.285,9.285,0,0,0-2.386,5.042,6.8,6.8,0,0,0-3.218,3.5,12.256,12.256,0,0,0-.879,4.75,20.984,20.984,0,0,0,7.532,16.191l21.265-5.595a16.123,16.123,0,0,0,3.914-13.746,9.369,9.369,0,0,0-.033-8.467" fill="#ff8703"/><path d="M140.749,8.833c-13.441-1.667-20.5,4.8-19.361,17.354.906,10,6.71,16.215,16.16,16.245,8.705.028,10.117-7.076,10.235-14.529.167-10.625.947-18.08-7.034-19.07" fill="#ffb9a7"/><path d="M146.339,13.9a20.154,20.154,0,0,1-5.687,2.645,6.824,6.824,0,0,1-5.96-1.146,7.316,7.316,0,0,1-7.662.474,5.474,5.474,0,0,1-3.676,5.338,9.344,9.344,0,0,1-2.208,8.755,17.661,17.661,0,0,1,.559-16.944,17.667,17.667,0,0,1,14.751-8.355,13.5,13.5,0,0,1,9.387,3.428,9.99,9.99,0,0,1,2.695,4.508c.163.584.862,4.785-.495,4.226-.416-.172-.612-.857-.806-1.224l-.9-1.7" fill="#ff8703"/><path d="M147.447,22.773a20.4,20.4,0,0,0-5.44-.2c1.133-1.568,4.134-.809,5.44.2" fill="#ff8703"/><path d="M131.155,22.773a20.4,20.4,0,0,1,5.44-.2c-1.133-1.568-4.134-.809-5.44.2" fill="#ff8703"/><path d="M143.06,27.728a1,1,0,1,0,.98-1.207,1.112,1.112,0,0,0-.98,1.207" fill="#35114c"/><path d="M144.04,27.289a.316.316,0,1,0,.308-.389.356.356,0,0,0-.308.389" fill="#fff"/><path d="M133.582,27.728a1,1,0,1,0,.98-1.207,1.112,1.112,0,0,0-.98,1.207" fill="#35114c"/><path d="M134.562,27.289a.316.316,0,1,0,.307-.389.356.356,0,0,0-.307.389" fill="#fff"/><path d="M140.333,32.173a.31.31,0,0,1-.056-.615,1.067,1.067,0,0,0,.75-.388.523.523,0,0,0-.007-.455,6.782,6.782,0,0,0-.456-.837,6.847,6.847,0,0,1-.521-.971.311.311,0,0,1,.582-.217,6.533,6.533,0,0,0,.471.869,6.929,6.929,0,0,1,.505.936,1.121,1.121,0,0,1-.033.98,1.616,1.616,0,0,1-1.177.693.389.389,0,0,1-.058.005" fill="#c26251"/><path d="M142.7,33.735a34.167,34.167,0,0,1-6.736-.244c1.2,2.681,5.994,2.211,6.736.244" fill="#fff"/><path d="M123.623,28.048c.8,1.969.224,3.869-1.2,4.446s-3.227-.551-4.024-2.52-.287-4.034,1.139-4.611,3.29.716,4.087,2.685" fill="#ffb9a7"/><path d="M122.249,30.587a.312.312,0,0,1-.1-.018,1.606,1.606,0,0,1-1.1-1.358,1.742,1.742,0,0,1,.157-.734,1.426,1.426,0,0,0,.115-.408.91.91,0,0,0-.258-.678.949.949,0,0,0-.772-.327.865.865,0,0,0-.618.894.31.31,0,1,1-.62,0,1.464,1.464,0,0,1,1.139-1.506,1.612,1.612,0,0,1,1.749,1.655,1.974,1.974,0,0,1-.155.592,1.182,1.182,0,0,0-.117.479.994.994,0,0,0,.688.806.311.311,0,0,1-.1.6" fill="#c26251"/><path d="M134.005,90.6l37.7,20.107a4.4,4.4,0,0,1-3.69,7.983L128.275,103a6.838,6.838,0,0,1,5.024-12.72,6.978,6.978,0,0,1,.706.326" fill="#ffb9a7"/><path d="M130.9,103.628a6.83,6.83,0,0,1-6.17-3.895L107.774,64.092a6.827,6.827,0,1,1,12.33-5.867l16.961,35.64a6.83,6.83,0,0,1-6.16,9.763" fill="#ffb9a7"/><path d="M113.308,48.83h0a9.824,9.824,0,0,0-8.661,10.78l.54,2.5a83.765,83.765,0,0,0,6.843,19.572l8.214,16.561a16.524,16.524,0,0,0,9.893,8.435l22.889,7.119c1.743-2.6,3.69-12.739,3.69-12.739L137.179,91.025l-18.7-40.673Z" fill="#f05d56"/><path d="M167.3,110.076s9.061-8.773,10.341-8.567-3.457,7.318-3.457,7.318,18.41,7.358,18.149,8.5-8.483-1.722-8.483-1.722,8.7,4.438,8.207,5.537c-.45,1-9.762-3.062-9.762-3.062s8.565,5.623,7.642,6.2-9.093-3.911-9.093-3.911,6.274,5.37,5.616,5.707-8.033-3.859-8.033-3.859c-3.795-1.383-8.4-2.595-10.1-3.49-6.751-3.553-1.022-8.649-1.022-8.649" fill="#ffb9a7"/><path d="M154.495,100.074a.151.151,0,0,1-.071-.017l-17.315-8.894a.153.153,0,0,1-.07-.074l-17.47-38a.156.156,0,0,1,.283-.13L137.3,90.911l17.267,8.87a.155.155,0,0,1-.071.293" fill="#d72d26"/><path d="M123.576,61.591a.156.156,0,0,1-.155-.141L122.6,52.8a.156.156,0,0,1,.14-.169.152.152,0,0,1,.17.14l.817,8.654a.155.155,0,0,1-.14.169h-.015" fill="#d72d26"/><path d="M151.127,113.364a.141.141,0,0,1-.045-.007l-20.233-6.162a17.558,17.558,0,0,1-10.727-9.253L107.749,71.855a.155.155,0,0,1,.28-.134L120.4,97.808a17.252,17.252,0,0,0,10.538,9.09l20.233,6.162a.156.156,0,0,1,.1.194.154.154,0,0,1-.148.11" fill="#d72d26"/><path d="M110.267,286.6l16.534,7.64a2.877,2.877,0,0,1,1.492,3.217H96.662l1.175-11.6,12.43.747" fill="#cb5c37"/><rect width="32.593" height="3.434" transform="translate(96.104 297.461)"/><path d="M103.21,294.446a3.184,3.184,0,0,1-2.255-.931,3.247,3.247,0,0,1,2.2-5.551h.054a3.18,3.18,0,0,1,2.253.931,3.248,3.248,0,0,1-2.2,5.551Zm0-5.642h-.04a2.372,2.372,0,1,0,.04,0Z"/><path d="M0,2.636A.419.419,0,0,1-.313,2.5.42.42,0,0,1-.28,1.9L2.2-.313a.42.42,0,0,1,.594.033.42.42,0,0,1-.033.594L.28,2.528A.419.419,0,0,1,0,2.636Z" transform="translate(112.446 287.51)"/><path d="M0,2.649a.419.419,0,0,1-.314-.14A.42.42,0,0,1-.28,1.915L2.211-.313A.42.42,0,0,1,2.8-.28a.42.42,0,0,1-.033.594L.28,2.541A.419.419,0,0,1,0,2.649Z" transform="translate(114.748 288.641)"/><path d="M0,2.748a.419.419,0,0,1-.314-.14A.42.42,0,0,1-.28,2.014l2.6-2.327a.42.42,0,0,1,.594.033.42.42,0,0,1-.033.594L.28,2.64A.419.419,0,0,1,0,2.748Z" transform="translate(117.082 289.91)"/><path d="M153.761,286.639l17.933,8.254a2.878,2.878,0,0,1,1.493,3.217H141.555l1.176-11.6,11.03.133" fill="#cb5c37"/><rect width="32.593" height="3.434" transform="translate(140.997 298.11)"/><path d="M148.1,295.1a3.184,3.184,0,0,1-2.255-.931,3.247,3.247,0,0,1,2.2-5.551h.054a3.18,3.18,0,0,1,2.253.931,3.248,3.248,0,0,1-2.2,5.551Zm0-5.642h-.04a2.372,2.372,0,1,0,.04,0Z"/><path d="M0,2.636A.419.419,0,0,1-.313,2.5.421.421,0,0,1-.28,1.9L2.2-.313a.42.42,0,0,1,.594.033.421.421,0,0,1-.033.594L.28,2.528A.419.419,0,0,1,0,2.636Z" transform="translate(157.339 288.159)"/><path d="M0,2.649a.419.419,0,0,1-.314-.14A.42.42,0,0,1-.28,1.915L2.211-.313A.42.42,0,0,1,2.8-.28a.42.42,0,0,1-.033.594L.28,2.541A.419.419,0,0,1,0,2.649Z" transform="translate(159.641 289.29)"/><path d="M0,2.748a.419.419,0,0,1-.314-.14A.42.42,0,0,1-.28,2.014l2.6-2.327a.42.42,0,0,1,.594.033.42.42,0,0,1-.033.594L.28,2.64A.419.419,0,0,1,0,2.748Z" transform="translate(161.974 290.559)"/></g></g></svg>