<svg xmlns="http://www.w3.org/2000/svg" xmlns:xlink="http://www.w3.org/1999/xlink" width="289.004" height="304.934" viewBox="0 0 289.004 304.934"><defs><clipPath id="a"><rect width="289.004" height="304.934" fill="none"/></clipPath><clipPath id="c"><rect width="16.072" height="13.896" fill="none"/></clipPath><clipPath id="d"><rect width="20.407" height="4.42" fill="none"/></clipPath><clipPath id="e"><rect width="12.473" height="16.751" fill="none"/></clipPath></defs><g clip-path="url(#a)"><g clip-path="url(#a)"><path d="M188.235,43.574c-28.368-1.667-54.306,9.066-75.3,27.7C97.1,85.317,84.4,102.473,68.586,116.536c-15.834,14.08-36.666,21.762-51.2,37.3-20.342,21.76-21.876,55.7-9.6,81.815,9.225,19.617,25.526,35.409,44.326,46.2,49.623,28.485,122.891,32.369,172.352,1.674,33.894-21.034,55.893-58.635,61.925-98.066,4.08-26.675,4.46-55.861-6.923-80.9-16.331-35.922-53.192-58.751-91.239-60.987" transform="translate(0)" fill="#97d5c9"/><path d="M282.215,274.986a20.845,20.845,0,1,1-21.038-20.65,20.845,20.845,0,0,1,21.038,20.65" transform="translate(0 0)" fill="#ff8703"/><rect width="3.108" height="41.69" transform="translate(258.068 254.365) rotate(-0.535)" fill="#ff8703"/><path d="M279.107,275.015a20.845,20.845,0,1,1-21.039-20.65,20.845,20.845,0,0,1,21.039,20.65" transform="translate(0 0)" fill="#ffb549"/><path d="M274.353,275.059a16.091,16.091,0,1,1-16.24-15.94,16.091,16.091,0,0,1,16.24,15.94" transform="translate(0 0)" fill="#ff8703"/><path d="M263.359,281a6.148,6.148,0,0,1-3.564,1.641l.021,2.3-2.49.023-.02-2.22a13.067,13.067,0,0,1-2.951-.5,8.464,8.464,0,0,1-2.313-1.027l1.32-3.041a8.714,8.714,0,0,0,2.272,1.016,8.581,8.581,0,0,0,2.534.37q2.365-.021,2.355-1.2a.98.98,0,0,0-.683-.917,12.553,12.553,0,0,0-2.174-.613,20.659,20.659,0,0,1-2.746-.732,4.6,4.6,0,0,1-1.9-1.279,3.5,3.5,0,0,1-.811-2.4,4.158,4.158,0,0,1,1.258-3.073,6.148,6.148,0,0,1,3.7-1.6l-.021-2.282,2.49-.023.02,2.241a12.1,12.1,0,0,1,2.277.394,8.351,8.351,0,0,1,1.947.791l-1.237,3.061a8.46,8.46,0,0,0-4.036-1.082,3.375,3.375,0,0,0-1.781.379,1.092,1.092,0,0,0-.552.95.937.937,0,0,0,.673.865,12.015,12.015,0,0,0,2.142.581,20.053,20.053,0,0,1,2.757.732,4.748,4.748,0,0,1,1.9,1.269,3.436,3.436,0,0,1,.822,2.389A4.1,4.1,0,0,1,263.359,281" transform="translate(0 0)" fill="#ffb549"/><g transform="translate(244.901 260.987)" opacity="0.5" style="mix-blend-mode:soft-light;isolation:isolate"><g clip-path="url(#c)"><path d="M260.331,262.4c1.736,2.317-.168,6.675-4.251,9.734s-8.8,3.659-10.537,1.342.168-6.675,4.252-9.733,8.8-3.66,10.536-1.343" transform="translate(-244.901 -260.987)" fill="#fff"/></g></g><rect width="49.655" height="8.558" transform="translate(217.344 296.025)" fill="#ffb549"/><rect width="1.27" height="6.583" transform="translate(219.73 297.013)" fill="#ff8703"/><rect width="1.27" height="6.583" transform="translate(225.96 297.013)" fill="#ff8703"/><rect width="1.27" height="6.583" transform="translate(232.191 297.013)" fill="#ff8703"/><rect width="1.27" height="6.583" transform="translate(238.421 297.013)" fill="#ff8703"/><rect width="1.27" height="6.583" transform="translate(244.651 297.013)" fill="#ff8703"/><rect width="1.27" height="6.583" transform="translate(250.882 297.013)" fill="#ff8703"/><rect width="1.27" height="6.583" transform="translate(257.112 297.013)" fill="#ff8703"/><rect width="1.27" height="6.583" transform="translate(263.342 297.013)" fill="#ff8703"/><g transform="translate(222.24 296.966)" opacity="0.5" style="mix-blend-mode:soft-light;isolation:isolate"><g clip-path="url(#d)"><path d="M242.647,299.176c0,1.221-4.568,2.21-10.2,2.21s-10.2-.989-10.2-2.21,4.568-2.21,10.2-2.21,10.2.989,10.2,2.21" transform="translate(-222.24 -296.966)" fill="#fff"/></g></g><rect width="49.655" height="8.557" transform="matrix(0.585, -0.811, 0.811, 0.585, 204.462, 299.575)" fill="#ffb549"/><rect width="1.27" height="6.583" transform="matrix(0.585, -0.811, 0.811, 0.585, 206.66, 298.217)" fill="#ff8703"/><rect width="1.27" height="6.583" transform="matrix(0.585, -0.811, 0.811, 0.585, 210.306, 293.165)" fill="#ff8703"/><rect width="1.27" height="6.583" transform="matrix(0.585, -0.811, 0.811, 0.585, 213.952, 288.113)" fill="#ff8703"/><rect width="1.27" height="6.583" transform="translate(217.598 283.061) rotate(-54.168)" fill="#ff8703"/><rect width="1.27" height="6.583" transform="translate(221.245 278.009) rotate(-54.168)" fill="#ff8703"/><rect width="1.27" height="6.583" transform="translate(224.891 272.957) rotate(-54.168)" fill="#ff8703"/><rect width="1.27" height="6.583" transform="matrix(0.585, -0.811, 0.811, 0.585, 228.537, 267.905)" fill="#ff8703"/><rect width="1.27" height="6.583" transform="matrix(0.585, -0.811, 0.811, 0.585, 232.183, 262.853)" fill="#ff8703"/><g transform="translate(209.617 280.799)" opacity="0.5" style="mix-blend-mode:soft-light;isolation:isolate"><g clip-path="url(#e)"><path d="M221.825,280.9c.99.714-.882,5-4.18,9.567s-6.774,7.7-7.763,6.981.881-5,4.179-9.568,6.774-7.694,7.764-6.98" transform="translate(-209.617 -280.799)" fill="#fff"/></g></g><path d="M144.411,129.209l-30.992,72.454-.189-6.057,28.053,71.872c-.243,3.969-1.53,5.818-2.8,6.755-2.222,1.642-6.432,1.994-6.434,1.994q-1.268-3.7-2.613-7.449-4.067-11.321-8.405-21.875C108.677,222.056,99.711,204,98.762,202.12a6.951,6.951,0,0,1-.427-5.332l.238-.725L123.15,121.19a11.372,11.372,0,0,1,21.61,7.093c-.1.31-.224.632-.349.926" transform="translate(0 0)" fill="#f28c78"/><path d="M169.633,125.6c2.53,7.3.608,13.665-.69,19.205-2.664,11.371-1.7,23.3-3.073,34.9-5.145,43.579-3.738,108.921-3.738,108.922a7.094,7.094,0,0,1-7.07,1.206,6.89,6.89,0,0,1-3.466-3.281c-.054-4.942-.138-13.071-.214-23.1-.719-94.12,1.2-91.356-1.427-100.539-3.2-11.192-8.621-24.314-3.041-37.733.769-1.851,4.794-11.53,11.058-11.681,5.477-.131,9.924,7.087,11.661,12.1" transform="translate(0 0)" fill="#f28c78"/><path d="M150.177,125.2l-3.379,7.63-.4.9h-.009l-1.566,3.556h-.009l-.4.915-1.065,2.411-2.4,5.421-.352.8-2.755,6.2-.4.889L136.4,156.3l-.431.968-9.4,21.208-.378.845-6.512,14.7-.361.81L117.5,198.92l1.531,3.96h.009l.387,1.021h.009l7.313,18.876.334.88,4.753,12.25.325.845.933,2.4c-11.352,10.085-20.064,11.115-20.064,11.115l-1.1-2.42-.4-.88L105.164,232.9l-.369-.827-3.318-7.331-.352-.774-6.882-15.207c-.052-.123-.1-.237-.158-.36-.123-.282-.238-.572-.343-.863a18.483,18.483,0,0,1-.159-12.329l13.482-39.6.317-.932,1.531-4.5.343-.995,2.9-8.527.308-.906,1.4-4.11.3-.889,2.8-8.21c.15-.44.308-.889.467-1.329.1-.291.2-.59.308-.88q1.755-4.858,3.969-9.548c.14-.317.29-.634.44-.951h.008c.748-1.575,1.549-3.141,2.376-4.681l5.958-11.08H149.6l.264,12.4.018.888.264,12.409.017.88Z" transform="translate(0 0)" fill="#6165d1"/><path d="M173.18,132.188a53.517,53.517,0,0,1-.176,5.685l-1.751,16.307-.15,1.4-1.012,9.4-.105.977-2.033,18.92-.088.845-.828,7.692-.07.633-.009.247-.44,22.15-.017.871-.168,8.457-.017.977-.431,21.586-.018.951-.273,13.833a68.823,68.823,0,0,1-23.2-1.839l.009-1,.018-2.024.167-21.719.009-1.461.1-12.214.018-1.628.246-31.073.009-.995.141-18.471.009-.924.1-13.614.009-.863.115-14.678.017-2.324.009-.906.026-3.476.009-.88.062-8.263.009-.88.088-11.678.008-.889.106-13.244.026-3.371,17.653,3.371,4.867,9.046.431.792.238.449a52.881,52.881,0,0,1,5.341,15.031c.062.29.115.581.159.871a51.06,51.06,0,0,1,.757,7.031q.025.45.026.9" transform="translate(0 0)" fill="#6165d1"/><path d="M143.5,138.462a.167.167,0,0,1-.168-.163l-.179-6.077a8.534,8.534,0,0,1-3.918-2.585.169.169,0,0,1,.262-.212,8.276,8.276,0,0,0,3.875,2.517.168.168,0,0,1,.115.154l.181,6.193a.168.168,0,0,1-.163.173Z" transform="translate(0 0)" fill="#333b86"/><path d="M109.554,95.683,69.672,93.266a3.313,3.313,0,0,1,0-6.614l39.882-2.418a5.735,5.735,0,0,1,.694,11.449,6.179,6.179,0,0,1-.694,0" transform="translate(0 0)" fill="#f28c78"/><path d="M110.388,95.742a5.727,5.727,0,0,1-5.066-8.383l20.621-39.35a5.724,5.724,0,0,1,10.141,5.314l-20.621,39.35a5.724,5.724,0,0,1-5.075,3.069" transform="translate(0 0)" fill="#f28c78"/><path d="M107.476,84.444a.169.169,0,0,1,0-.337l6.108-.181h.006a.17.17,0,0,1,.168.164.167.167,0,0,1-.163.173l-6.109.181Z" transform="translate(0 0)" fill="#cb6756"/><path d="M70.354,86.367s-9.424-7.081-10.586-6.74,4.058,6.383,4.058,6.383-16.214,8.966-15.839,10,7.665-2.584,7.665-2.584S48.1,98.55,48.686,99.512c.533.872,8.7-3.976,8.7-3.976s-7.287,6.212-6.364,6.635,7.976-4.685,7.976-4.685-5.193,5.709-4.544,5.946,7-4.514,7-4.514c3.173-2.342,4.995-2.673,8.963-4.412,7.141-3.129,5.692-5.539-.059-8.139" transform="translate(0 0)" fill="#f28c78"/><path d="M194.251,79.5l-20.363,34.376a3.313,3.313,0,0,1-5.884-3.02l16.061-36.584a5.735,5.735,0,1,1,10.5,4.611,6.4,6.4,0,0,1-.317.617" transform="translate(0 0)" fill="#f28c78"/><path d="M189.156,82.026a5.71,5.71,0,0,1-3.843-1.482L156.174,54.128a5.724,5.724,0,1,1,7.689-8.481L193,72.061a5.724,5.724,0,0,1-3.847,9.965" transform="translate(0 0)" fill="#f28c78"/><path d="M182.827,77.3a.177.177,0,0,1-.067-.013.169.169,0,0,1-.088-.221l1.16-2.658a.168.168,0,1,1,.309.134l-1.159,2.657a.167.167,0,0,1-.155.1" transform="translate(0 0)" fill="#cb6756"/><path d="M169.1,107.761s-5.137-2.172-6.74-1.688-10.944,5.14-10.316,6.333c.43.816,8.13-2.8,8.13-2.8s-7.977,4.207-7.719,5.358,8.717-3.065,8.717-3.065-6.476,4.455-5.838,5.2,8.346-3.354,8.346-3.354-5.847,4.765-5.554,5.483,7.788-4.006,7.788-4.006,6.6,2.13,8.107-1.794c1.845-4.788-4.921-5.663-4.921-5.663" transform="translate(0 0)" fill="#f28c78"/><path d="M156.9,42.991l2.632.337a16.163,16.163,0,0,1,9.4,4.63l17.2,15.578c-1.949,4.463-4.82,9.357-8.884,11.947L162.51,66.344Z" transform="translate(0 0)" fill="#00c5a8"/><path d="M131.014,44.3l-.342.049a8.435,8.435,0,0,0-6.16,4.224L110.53,73.508c6.476,5.617,15.188,7.738,15.188,7.738l5.3-10.9Z" transform="translate(0 0)" fill="#00c5a8"/><path d="M156.9,42.991l-13.8-1.769L131.014,44.3l-3.7,15.732c-1.64,2.73-3.212,5.743-3.008,9.611a10.664,10.664,0,0,0,4.264,7.706l1.924,20.717h30.873l2.9-40.043Z" transform="translate(0 0)" fill="#00c5a8"/><path d="M149.607,78.976l-.351,0a.169.169,0,0,1-.165-.172.172.172,0,0,1,.171-.165l.325,0c6.386,0,9.844-3.775,10.265-6.509a.174.174,0,0,1,.192-.141.167.167,0,0,1,.141.192c-.409,2.657-3.643,6.795-10.578,6.795" transform="translate(0 0)" fill="#00896d"/><path d="M162.342,65.239a.17.17,0,0,1-.16-.115,36.4,36.4,0,0,1-1.163-18.465.168.168,0,0,1,.33.065A36.062,36.062,0,0,0,162.5,65.017a.169.169,0,0,1-.107.213.164.164,0,0,1-.053.009" transform="translate(0 0)" fill="#00896d"/><path d="M127.167,60.468a.168.168,0,0,1-.167-.149,39.019,39.019,0,0,1,.165-11.056.174.174,0,0,1,.194-.139.169.169,0,0,1,.139.194,38.659,38.659,0,0,0-.164,10.963.168.168,0,0,1-.148.186h-.019" transform="translate(0 0)" fill="#00896d"/><path d="M130.013,78.5a.163.163,0,0,1-.079-.02c-.054-.029-5.49-2.965-5.8-8.832-.23-4.371,1.808-7.708,3.606-10.652l.173-.284a.168.168,0,1,1,.288.175l-.174.285c-1.772,2.9-3.781,6.192-3.556,10.459.3,5.672,5.567,8.524,5.62,8.552a.168.168,0,0,1-.079.317" transform="translate(0 0)" fill="#00896d"/><path d="M165.721,26.967a15.692,15.692,0,0,0-3.336-6.706,34.42,34.42,0,0,1-4.229-6.286c-1.156-2.572-1.514-5.4-3.039-7.822-3.271-5.2-10.382-7.425-16.271-5.426a13.345,13.345,0,0,0-5.489,3.562c-.172.186-1.406,1.968-1.492,1.957a5.383,5.383,0,0,0-3.6.8,4.994,4.994,0,0,0-2.244,4.033c-.016,1.255.459,2.469.566,3.719a10.522,10.522,0,0,1-2.116,6.444,45.476,45.476,0,0,0-3.744,5.846c-.951,2.1-1.25,4.652-.037,6.625,1.616,2.629,5.219,3.321,8.387,3.354s6.549-.283,9.3,1.237a27.005,27.005,0,0,1,4.1,3.381,6.542,6.542,0,0,0,4.864,1.872c1.952-.261,3.389-1.867,4.464-3.46s2.058-3.363,3.753-4.333c2.261-1.294,5.267-.852,7.5-2.192a6.491,6.491,0,0,0,2.669-6.606" transform="translate(0 0)" fill="#002644"/><path d="M147.621,28.824l.88,13.52s-5.9,3.8-10.655.808l.167-10.26Z" transform="translate(0 0)" fill="#f28c78"/><path d="M137.941,37.342a11.757,11.757,0,0,0,9.551-3.5H138Z" transform="translate(0 0)" fill="#ae4c3a"/><path d="M135.224,43.228l7.185-1.832,2.633.164,1.39.09,4.6.59c-5.092,10.711-15.059,6.915-15.811.988" transform="translate(0 0)" fill="#f28c78"/><path d="M137.945,6.2c10.634-1.585,16.217,4.56,15.317,16.493-.716,9.5-6.64,14.765-14.024,13.576-5.845-.941-9.539-5.578-10.144-12.635-.863-10.072,2.536-16.493,8.851-17.434" transform="translate(0 0)" fill="#f28c78"/><path d="M156.115,17.862a18.74,18.74,0,0,0-.8-2.782,16.4,16.4,0,0,0-6.887-8.551A13.167,13.167,0,0,0,136.1,6.035a.451.451,0,0,0-.211.514.38.38,0,0,0-.176.436,21.4,21.4,0,0,0,5.716,10.445,16.719,16.719,0,0,0,10.331,4.8,12.694,12.694,0,0,0,2.883-.059,1.875,1.875,0,0,0,1.712-1.313,7.3,7.3,0,0,0-.238-3" transform="translate(0 0)" fill="#002644"/><path d="M151.759,23.383c-.673,1.664-.189,3.269,1.015,3.756s2.727-.465,3.4-2.129.242-3.408-.962-3.895-2.78.6-3.453,2.268" transform="translate(0 0)" fill="#f28c78"/><path d="M152.921,25.6a.337.337,0,0,1-.114-.654.765.765,0,0,0,.533-.615.983.983,0,0,0-.094-.375,1.721,1.721,0,0,1-.136-.519,1.438,1.438,0,0,1,1.564-1.479,1.311,1.311,0,0,1,1.025,1.346.337.337,0,1,1-.673,0,.658.658,0,0,0-.459-.682.726.726,0,0,0-.588.255.7.7,0,0,0-.2.517,1.182,1.182,0,0,0,.093.321,1.521,1.521,0,0,1,.137.653,1.43,1.43,0,0,1-.977,1.212.356.356,0,0,1-.114.02" transform="translate(0 0)" fill="#ae4c3a"/><path d="M129.983,17.438a19.7,19.7,0,0,1,5.251-.194c-1.094-1.513-3.99-.781-5.251.194" transform="translate(0 0)" fill="#002644"/><path d="M145.709,17.438a19.7,19.7,0,0,0-5.251-.194c1.094-1.513,3.99-.781,5.251.194" transform="translate(0 0)" fill="#002644"/><path d="M134.217,22.221a.966.966,0,1,1-.945-1.165,1.073,1.073,0,0,1,.945,1.165" transform="translate(0 0)" fill="#002644"/><path d="M133.272,21.8a.305.305,0,1,1-.3-.375.343.343,0,0,1,.3.375" transform="translate(0 0)" fill="#fff"/><path d="M143.366,22.221a.966.966,0,1,1-.945-1.165,1.073,1.073,0,0,1,.945,1.165" transform="translate(0 0)" fill="#002644"/><path d="M142.421,21.8a.305.305,0,1,1-.3-.375.343.343,0,0,1,.3.375" transform="translate(0 0)" fill="#fff"/><path d="M136.85,26.548a.334.334,0,0,1-.062-.006,1.593,1.593,0,0,1-1.163-.687,1.116,1.116,0,0,1-.034-.976,6.56,6.56,0,0,1,.492-.913,6.624,6.624,0,0,0,.451-.829.337.337,0,1,1,.631.235,6.641,6.641,0,0,1-.5.94,6.49,6.49,0,0,0-.44.806.439.439,0,0,0-.009.407,1.018,1.018,0,0,0,.7.355.337.337,0,0,1-.061.668" transform="translate(0 0)" fill="#ae4c3a"/><path d="M134.569,28.019a33,33,0,0,0,6.5-.235c-1.158,2.587-5.786,2.133-6.5.235" transform="translate(0 0)" fill="#fff"/><path d="M140.878,266.391s-1.55,9.213-9.239,9.338l-4.263,26.927L150.367,269.4Z" transform="translate(0 0)"/><path d="M130.171,304.583l22.991-33.256-2.795-1.928-22.991,33.256Z" transform="translate(0 0)" fill="#fff"/><path d="M162.132,288.626a8.2,8.2,0,0,1-3.71,1.055A8.917,8.917,0,0,1,152,286.992l-19.886,9.438,32.4-.191Z" transform="translate(0 0)"/><path d="M132.133,299.151l32.4-.19-.019-2.722-32.4.191Z" transform="translate(0 0)" fill="#fff"/></g></g></svg>