<svg xmlns="http://www.w3.org/2000/svg" width="128" height="128" viewBox="0 0 128 128" version="1.1"><path d="M 2.893 81.750 C 3.423 82.713, 13.676 93.252, 25.678 105.172 C 56.701 135.981, 53.236 136.081, 86 103.430 L 109.500 80.012 101.990 80.006 L 94.480 80 76 98.500 C 62.077 112.439, 56.916 117, 55.070 117 C 53.228 117, 48.004 112.408, 34.026 98.500 L 15.433 80 8.681 80 C 2.551 80, 2.018 80.161, 2.893 81.750 M 40.534 83.736 C 43.797 91.544, 50.721 95.940, 59.817 95.978 C 64.403 95.997, 65.069 95.759, 64.655 94.250 C 64.391 93.287, 63.898 90.858, 63.561 88.851 C 63.073 85.951, 62.573 85.299, 61.125 85.677 C 58.726 86.305, 52.133 83.509, 51.379 81.545 C 50.937 80.393, 49.284 80, 44.880 80 L 38.973 80 40.534 83.736 M 56.510 81.016 C 56.856 81.575, 57.557 81.774, 58.069 81.457 C 59.456 80.600, 59.198 80, 57.441 80 C 56.584 80, 56.165 80.457, 56.510 81.016" stroke="none" fill="#05a8f2" fill-rule="evenodd"/><path d="M 33.802 32.750 C -1.375 68.028, -1.199 67.796, 0.434 76.500 L 1.091 80 8.118 80 L 15.145 80 13.073 77.365 C 11.933 75.916, 11 73.776, 11 72.609 C 11 71.160, 20.595 60.897, 41.256 40.244 L 71.512 10 94.756 10 L 118 10 118 33.235 L 118 56.470 106.266 68.235 L 94.531 80 102.035 80 L 109.540 80 118.770 70.731 L 128 61.462 128 30.731 L 128 0 97.230 0 L 66.459 0 33.802 32.750 M 94.937 26.338 C 89.895 28.838, 92.243 36.461, 97.853 35.804 C 101.033 35.432, 103.331 31.487, 101.912 28.836 C 100.358 25.932, 97.685 24.975, 94.937 26.338 M 50.040 46.459 C 47.218 49.370, 46.890 50.162, 47.966 51.459 C 48.998 52.703, 49.001 53.294, 47.979 54.525 C 46.850 55.886, 46.533 55.887, 45.045 54.540 C 43.534 53.174, 43.025 53.390, 39.671 56.825 L 35.966 60.619 38.416 62.921 C 40.427 64.810, 40.699 65.662, 39.933 67.676 C 39.420 69.026, 39 72.351, 39 75.065 L 39 80 44.500 80 C 49.802 80, 50 79.903, 50 77.313 L 50 74.626 52.805 77.313 C 56.349 80.709, 58.655 80.705, 62.213 77.296 L 65.034 74.593 59.464 68.963 C 54.502 63.950, 54.068 63.188, 55.498 62.002 C 56.890 60.846, 57.825 61.383, 62.560 66.059 L 68.018 71.449 71.727 67.740 L 75.436 64.031 71.515 60.015 L 67.594 56 70.374 56 C 74.482 56, 79 60.904, 79 65.364 C 79 69.511, 79.104 69.596, 85.250 70.516 L 90 71.227 90 66.763 C 90 52.016, 77.621 42.340, 63.353 45.933 C 59.164 46.988, 58.527 46.905, 56.551 45.048 C 55.352 43.922, 54.151 43, 53.882 43 C 53.613 43, 51.884 44.557, 50.040 46.459" stroke="none" fill="#1ad5bd" fill-rule="evenodd"/></svg>